<svg width="896" height="779" viewBox="0 0 896 779" fill="none" xmlns="http://www.w3.org/2000/svg">
<path d="M392.967 441.403C387.339 442.981 94.3745 525.136 56.3353 374.737C18.296 224.339 222.36 245.951 202.413 189.363C175.379 112.7 352.539 83.3818 396.748 179.635C440.957 275.888 486.065 223.535 523.487 265.632C540.844 285.155 591.484 385.478 392.967 441.403Z" fill="#F2F0F0"/>
<path d="M258.449 201.609C217.977 204.466 180.445 234.516 174.39 279.287C171.836 298.001 164.475 310.432 156.733 318.582C145.961 329.923 127.321 334.697 127.321 334.697C127.576 336.139 127.879 337.525 128.182 338.812C137.76 379.855 164.886 357.546 182.597 353.984C200.867 350.335 240.33 249.637 275.119 241.243C309.908 232.849 345.673 305.444 341.564 266.704C337.455 227.963 298.943 198.748 258.449 201.609Z" fill="#F95D5D"/>
<path d="M337.106 248.992C325.132 219.494 292.486 199.207 258.449 201.609C218.307 204.443 181.105 233.978 174.546 278.112C176.223 280.036 178.262 281.61 180.548 282.744C180.548 282.744 181.781 229.545 241.113 212.117C300.446 194.69 330.309 235.744 337.106 248.992Z" fill="#E04646"/>
<path d="M325.053 293.668C325.053 293.668 295.136 312.131 291.18 275.986C283.62 289.547 272.038 293.843 272.038 293.843C272.038 293.843 285.769 321.919 270.915 329.303C256.061 336.687 224.183 325.936 230.704 301.272C242.277 257.553 295.875 253.88 304.395 256.984C312.915 260.089 304.859 294.74 325.053 293.668Z" fill="#DD3350" stroke="#191919" stroke-width="1.15"/>
<path d="M374.346 284.806C350.711 284.917 353.85 270.151 308.788 231.706C263.727 193.262 186.836 239.021 181.688 301.655C180.281 318.668 174.679 327.868 167.819 332.549C153.815 342.101 134.52 332.93 134.52 332.93C130.851 334.496 130.522 334.554 127.554 335.914C130.88 350.261 137.763 370.576 146.429 388.816L153.405 384.127L186.098 362.153L250.929 318.574C234.77 310.886 233.016 280.991 264.934 267.63C285.85 258.873 301.962 266.194 315.67 276.508C319.444 279.355 323.03 282.434 326.486 285.466C335.577 293.433 343.729 301.092 351.867 303.456C353.49 303.932 355.15 304.274 356.829 304.478C359.907 304.87 363.031 304.639 366.017 303.8C377.979 300.333 381.91 287.172 374.346 284.806Z" fill="#F95D5D"/>
<path opacity="0.67" d="M365.94 303.826C369.948 302.716 373.457 300.272 375.887 296.897C375.551 291.969 359.668 304.674 358.25 299.551C356.831 294.427 350.583 289.266 350.583 289.266C341.092 285.238 340.253 293.294 351.795 303.481C353.419 303.957 355.079 304.298 356.758 304.502C359.833 304.894 362.956 304.664 365.94 303.826Z" fill="#E04646"/>
<path opacity="0.67" d="M356.591 279.425C347.283 272.152 338.54 257.092 308.776 231.708C281.667 208.596 243.073 215.928 215.474 239.069C212.198 242.767 209.72 247.805 211.103 254.117C214.364 268.762 250.556 216.534 283.451 227.446C313.788 237.492 342.569 276.852 356.591 279.425Z" fill="#E04646"/>
<path d="M219.424 235.909C217.799 237.143 216.205 238.427 214.641 239.761" stroke="#191919" stroke-width="1.15" stroke-linecap="round"/>
<path d="M250.868 318.596C234.709 310.909 232.955 281.013 264.872 267.653C285.789 258.895 301.901 266.216 315.609 276.531C319.383 279.377 322.969 282.456 326.425 285.488C335.516 293.456 343.668 301.115 351.806 303.479C353.429 303.954 355.089 304.296 356.768 304.5C359.846 304.892 362.97 304.662 365.956 303.823C377.996 300.33 381.927 287.169 374.358 284.78C350.724 284.891 353.862 270.125 308.801 231.681C284.268 210.766 250.322 214.778 223.642 232.876" stroke="#191919" stroke-width="1.15" stroke-linecap="round"/>
<path d="M432.003 217.643C430.713 210.323 434.366 203.023 440.997 199.667C432.95 198.714 425.364 203.623 422.935 211.354C420.507 219.085 423.923 227.45 431.069 231.271L432.415 257.427L442.026 255.733L440.692 229.609C436.103 227.177 432.895 222.76 432.003 217.643Z" fill="#606060" stroke="#191919" stroke-width="1.15"/>
<path opacity="0.46" d="M296.983 242.241C296.983 242.241 326.227 254.715 328.168 271.401C326.061 276.982 305.738 244.917 287.62 246.9C269.501 248.883 280.845 236.563 296.983 242.241Z" fill="white"/>
<path d="M341.097 263.192C335.118 226.197 297.713 198.842 258.449 201.609C217.977 204.466 180.445 234.516 174.39 279.287C171.836 298.001 164.475 310.432 156.733 318.582C145.961 329.923 127.321 334.697 127.321 334.697C127.576 336.139 127.879 337.525 128.182 338.812" stroke="#191919" stroke-width="1.15"/>
<path d="M441.675 276.312L443.263 285.316C443.49 286.602 443.196 287.927 442.446 288.997C441.696 290.066 440.551 290.794 439.264 291.02L434.188 291.915L434.333 294.728L443.945 293.033L443.072 276.065L441.675 276.312Z" fill="#606060" stroke="#191919" stroke-width="1.15"/>
<path d="M467.887 285.972L458.576 287.614C455.899 288.086 453.345 286.298 452.873 283.621L451.286 274.617L443.071 276.065L443.944 293.033L470.161 288.411L469.274 285.505C468.838 285.731 468.37 285.888 467.887 285.972Z" fill="#191919" stroke="#191919" stroke-width="1.15"/>
<path d="M451.53 227.698C455.732 223.019 456.98 216.39 454.766 210.503C452.553 204.617 447.247 200.452 441.003 199.701C435.394 202.544 431.834 208.272 431.769 214.56C431.704 220.848 435.144 226.65 440.693 229.609L442.033 255.767L459.212 252.738L451.53 227.698Z" fill="#191919" stroke="#191919" stroke-width="1.15"/>
<path d="M459.209 252.721L312.098 278.66L315.601 298.53L425.738 279.11L427.325 288.114C427.797 290.792 430.351 292.58 433.028 292.107L439.273 291.006C440.56 290.781 441.705 290.053 442.455 288.983C443.205 287.913 443.499 286.589 443.272 285.302L441.687 276.31L451.298 274.615L452.886 283.619C453.358 286.296 455.911 288.084 458.589 287.612L467.899 285.971C468.383 285.886 468.85 285.729 469.286 285.504L459.209 252.721Z" fill="#FCC822"/>
<path opacity="0.67" d="M429.041 273.979C427.749 267.616 366.789 284.113 359.607 285.543C352.425 286.974 353.053 278.083 342.734 280.909C335.677 282.85 329.172 278.922 325.767 276.244L322.043 276.901C320.149 281.601 316.895 291.131 318.359 298.038L425.719 279.107L427.307 288.111C427.779 290.789 430.332 292.577 433.01 292.105L439.255 291.004C429.155 292.386 430.333 280.343 429.041 273.979Z" fill="#F78926"/>
<path fill-rule="evenodd" clip-rule="evenodd" d="M459.209 252.721L312.098 278.66L315.601 298.53L425.738 279.11L427.325 288.114C427.797 290.792 430.351 292.58 433.028 292.107L439.273 291.006C440.56 290.781 441.705 290.053 442.455 288.983C443.205 287.913 443.499 286.589 443.272 285.302L441.687 276.31L451.298 274.615L452.886 283.619C453.358 286.296 455.911 288.084 458.589 287.612L467.899 285.971C468.383 285.886 468.85 285.729 469.286 285.504L459.209 252.721Z" stroke="#191919" stroke-width="1.15"/>
<path d="M306.73 335.029C322.454 332.256 331.665 309.954 327.303 285.216C322.941 260.478 306.658 242.671 290.934 245.444C275.21 248.216 265.999 270.518 270.361 295.257C274.723 319.995 291.006 337.802 306.73 335.029Z" fill="#FCC822"/>
<g opacity="0.67">
<path d="M303.574 287.82C285.876 294.774 292.974 258.378 282.772 260.674C278.83 261.556 276.586 259.915 275.347 257.57C269.936 266.953 267.791 280.683 270.361 295.257C272.768 308.91 278.811 320.442 286.376 327.554C305.242 317.496 325.989 294.931 327.183 288.82C327.418 287.751 327.477 286.651 327.358 285.564C327.339 285.456 327.32 285.348 327.301 285.24C326.253 280.227 318.46 281.975 303.574 287.82Z" fill="#F78926"/>
<path d="M277.274 259.87C277.274 259.87 280.503 261.414 283.704 256.096C286.904 250.779 313.596 242.01 323.925 287.275C318.295 297.505 283.371 316.225 280.496 312.365C277.62 308.505 266.666 278.716 277.274 259.87Z" fill="#F78926"/>
</g>
<path fill-rule="evenodd" clip-rule="evenodd" d="M306.73 335.029C322.454 332.256 331.665 309.954 327.303 285.216C322.941 260.478 306.658 242.671 290.934 245.444C275.21 248.216 265.999 270.518 270.361 295.257C274.723 319.995 291.006 337.802 306.73 335.029Z" stroke="#191919" stroke-width="1.15"/>
<path opacity="0.67" d="M457.606 275.961C456.19 273.044 451.287 274.617 451.287 274.617L452.875 283.621C453.347 286.298 455.9 288.086 458.578 287.614L460.775 287.227C458.561 285.03 458.765 278.35 457.606 275.961Z" fill="#F78926"/>
<path d="M305.092 325.741C317.556 323.544 324.856 305.866 321.398 286.257C317.941 266.649 305.035 252.534 292.571 254.732C280.108 256.929 272.808 274.607 276.265 294.216C279.723 313.824 292.629 327.939 305.092 325.741Z" fill="#FCC822"/>
<path opacity="0.67" d="M303.574 287.82C285.882 294.774 292.971 258.396 282.778 260.673C276.662 267.88 273.861 280.579 276.265 294.216C278.632 307.636 285.426 318.485 293.473 323.288C304.907 315.629 316.055 304.755 322.245 296.967C322.312 293.378 322.028 289.791 321.398 286.257C321.172 284.974 320.902 283.711 320.597 282.477C316.659 283.019 311.027 284.902 303.574 287.82Z" fill="#F78926"/>
<path fill-rule="evenodd" clip-rule="evenodd" d="M305.092 325.741C317.556 323.544 324.856 305.866 321.398 286.257C317.941 266.649 305.035 252.534 292.571 254.732C280.108 256.929 272.808 274.607 276.265 294.216C279.723 313.824 292.629 327.939 305.092 325.741Z" stroke="#191919" stroke-width="1.15"/>
<path d="M156.723 318.584C146.071 306.677 136.634 300.76 130.851 303.618C124.387 306.795 123.824 320.2 128.166 338.815C127.859 337.506 127.571 336.14 127.305 334.7C127.311 334.699 145.95 329.925 156.723 318.584Z" fill="#191919" stroke="#191919" stroke-width="1.15"/>
<path d="M176.72 439.161C189.806 455.843 201.818 464.811 208.685 461.429C214.679 458.47 215.581 446.656 212.199 430.031C200.65 435.743 188.805 439.143 176.72 439.161H176.72Z" fill="#191919" stroke="#191919" stroke-width="1.15"/>
<path d="M326.404 285.468C308.247 288.723 288.804 310.022 269.537 318.172C262.292 321.235 255.872 320.98 250.842 318.577L186.038 362.176L146.369 388.838C147.036 390.235 147.717 391.641 148.412 393.056C157.392 411.252 167.308 427.187 176.719 439.161C188.804 439.143 200.655 435.742 212.198 430.031C271.963 400.486 323.489 309.139 356.752 304.503C347.251 287.833 337.038 283.593 326.404 285.468V285.468Z" fill="#F95D5D"/>
<path d="M160.379 379.426C153.646 350.935 184.181 319.543 180.929 289.847C177.018 254.391 203.283 218.8 237.397 205.614C205.668 215.563 179.37 242.433 174.367 279.291C171.813 298.005 164.452 310.436 156.71 318.586C145.938 329.927 127.298 334.701 127.298 334.701L127.513 335.916L127.456 335.926C127.618 336.646 127.801 337.387 127.986 338.133L128.105 338.808C128.496 340.495 128.913 342.032 129.358 343.493C133.738 359.05 139.406 374.215 146.303 388.832L153.279 384.143L160.379 379.426Z" fill="#E04646"/>
<path d="M261.196 392.966C254.934 395.399 197.621 428.129 169.049 395.663C164.395 390.378 161.68 384.944 160.375 379.403L146.369 388.838C147.037 390.235 147.718 391.641 148.412 393.056C157.392 411.252 167.308 427.187 176.719 439.161C188.804 439.143 200.655 435.742 212.198 430.031C229.281 421.58 245.696 408.074 261.196 392.966Z" fill="#E04646"/>
<path d="M176.72 439.161C251.323 439.054 317.06 310.021 356.753 304.503C347.251 287.833 337.038 283.593 326.405 285.468C308.247 288.723 288.805 310.022 269.538 318.172C262.293 321.235 255.873 320.98 250.842 318.577" stroke="#191919" stroke-width="1.15"/>
<path d="M212.198 430.031C215.586 446.655 214.678 458.47 208.684 461.429C196.896 467.242 169.92 436.654 148.408 393.033C126.896 349.412 119.03 309.414 130.813 303.601C136.595 300.744 146.038 306.659 156.698 318.576" stroke="#191919" stroke-width="1.15"/>
<path d="M137.235 428.856C141.788 426.664 139.147 411.739 131.338 395.52C123.529 379.301 113.508 367.93 108.956 370.122C104.403 372.314 107.043 387.239 114.853 403.457C122.662 419.676 132.683 431.048 137.235 428.856Z" fill="#191919" stroke="#191919" stroke-width="1.15"/>
<path opacity="0.34" d="M460.774 287.227L467.888 285.972C468.371 285.888 468.839 285.731 469.275 285.505L459.213 252.743L454.955 253.494C456.61 257.733 466.383 283.615 460.774 287.227H460.774Z" fill="#191919"/>
<path d="M329.634 306.007C319.795 310.593 312.558 324.325 317.032 333.3C327.169 322.732 336.538 314.056 345.015 309.049C342.337 306.442 336.872 302.635 329.634 306.007Z" fill="white" stroke="#191919" stroke-width="1.15"/>
<path d="M168.629 417.378C171.131 420.305 174.03 422.867 177.242 424.991" stroke="#191919" stroke-width="1.15" stroke-linecap="round"/>
<path d="M136.278 349.537C136.278 349.537 146.431 384.906 161.776 408.26" stroke="#191919" stroke-width="1.15" stroke-linecap="round"/>
<path d="M281.977 267.382C279.471 272.924 278.4 279.007 278.862 285.071" stroke="#191919" stroke-width="1.15" stroke-linecap="round"/>
<path d="M286.422 260.025C285.572 261.051 284.804 262.141 284.123 263.287" stroke="#191919" stroke-width="1.15" stroke-linecap="round"/>
<path d="M421.092 276.833C421.092 276.833 427.089 274.324 427.95 277.38C428.617 280.118 429.106 282.896 429.416 285.697" stroke="#191919" stroke-width="1.15" stroke-linecap="round"/>
<path opacity="0.46" d="M319.725 232.482C319.725 232.482 329.557 249.902 330.165 246.973C330.772 244.045 327.86 236.457 319.725 232.482Z" fill="white"/>
<path opacity="0.46" d="M271.754 244.763C271.754 244.763 270.419 252.661 264.438 252.141C258.458 251.621 260.116 242.168 271.511 243.384" fill="white"/>
<path d="M292.819 215.375C292.819 215.375 306.234 218.418 314.79 230.426" stroke="white" stroke-width="1.15" stroke-linecap="round"/>
<path opacity="0.63" d="M293.883 261.209C293.883 261.209 301.953 265.212 302.206 272.391C302.459 279.569 313.751 280.365 310.722 270.889C307.693 261.414 291.339 255.973 293.883 261.209Z" fill="white"/>
<path opacity="0.63" d="M351.503 274.733C351.503 274.733 393.102 264.687 395.738 268.15C398.373 271.613 362.931 275.638 363.624 278.572C364.317 281.505 343.386 279.19 351.503 274.733Z" fill="white"/>
<path opacity="0.63" d="M406.58 265.437C406.58 265.437 402.425 265.806 403.039 268.326C403.653 270.846 417.746 268.379 417.176 266.109C416.606 263.838 406.58 265.437 406.58 265.437Z" fill="white"/>
<path d="M283.526 360.492C267.353 378.657 243.109 402.5 218.424 414.352" stroke="white" stroke-width="1.15" stroke-linecap="round"/>
<path d="M295.419 346.506C293.738 348.559 291.822 350.904 289.679 353.425" stroke="white" stroke-width="1.15" stroke-linecap="round"/>
<path d="M303.092 336.671C303.092 336.671 301.592 338.692 298.881 342.173" stroke="white" stroke-width="1.15" stroke-linecap="round"/>
<path opacity="0.46" d="M262.459 324.841C262.459 324.841 284.361 317.759 296.254 306.625C308.146 295.49 320.815 287.829 324.757 291.963C328.7 296.098 254.497 345.814 262.459 324.841Z" fill="white"/>
<path opacity="0.46" d="M329.735 289.254C329.735 289.254 336.778 286.507 337.991 289.601C339.204 292.694 324.877 293.142 329.735 289.254Z" fill="white"/>
<path d="M244.055 322.748C239.475 319.744 234.922 314.875 233.477 307.11C230.249 289.767 242.447 277.478 242.447 277.478" stroke="#191919" stroke-width="1.15" stroke-linecap="round"/>
<path d="M255.412 327.336C253.46 326.973 251.549 326.413 249.709 325.667" stroke="#191919" stroke-width="1.15" stroke-linecap="round"/>
<path d="M816.102 580.768C816.102 580.768 824.125 734.645 714.895 674.506C595.127 608.549 350.101 718.151 344.551 576.91C339 435.668 552.501 467.83 496.724 369.398C440.947 270.967 772.955 279.788 816.102 580.768Z" fill="#7CF6FC"/>
<path d="M614.942 343.524C614.942 343.524 599.418 355.387 602.73 376.119C606.041 396.85 583.164 383.052 571.958 405.37C560.752 427.688 579.026 437.124 554.578 437.999C530.13 438.874 533.54 458.379 550.671 460.156C567.801 461.932 613.97 471.317 613.97 471.317L633.273 427.616L614.942 343.524Z" fill="#231F20" stroke="#231F20" stroke-width="1.4"/>
<path d="M609.745 452.55C609.745 452.55 571.664 442.676 536.91 448.806C512.803 453.046 520.15 436.583 536.65 413.616C538.027 396.368 523.218 382.223 523.212 382.222C487.006 395.46 425.573 422.768 430.533 478.432C437.226 553.545 594.128 524.36 594.128 524.36C594.128 524.36 637.389 461.834 609.745 452.55Z" fill="white"/>
<path opacity="0.68" d="M523.503 529.876C524.015 529.34 524.446 528.731 524.78 528.069C535.294 506.96 527.372 496.81 527.372 496.81C527.372 496.81 456.112 515.897 448.306 469.483C441.704 430.255 502.419 398.901 523.467 382.471L523.208 382.215C487.002 395.453 425.569 422.761 430.529 478.426C434.114 518.705 480.893 528.997 523.503 529.876Z" fill="#C1BFBF"/>
<path d="M556.586 337.223C556.586 337.223 545.747 318.476 550.874 305.895C556 293.315 571.791 290.896 577.728 299.622C583.664 308.348 592.497 327.77 604.292 310.327C616.087 292.884 633.185 293.119 637.701 306.658C642.216 320.197 652.778 323.823 662.459 313.763C672.14 303.702 698.454 315.73 691.289 348.116C683.187 372.867 639.155 370.546 630.269 363.245C621.384 355.943 607.467 352.467 607.467 352.467C607.467 352.467 585.343 358.908 580.905 333.435C576.468 307.961 555.802 320.903 560.308 336.449C558.998 343.88 556.586 337.223 556.586 337.223Z" fill="#FFA350"/>
<path fill-rule="evenodd" clip-rule="evenodd" d="M556.586 337.223C556.586 337.223 545.747 318.476 550.874 305.895C556 293.315 571.791 290.896 577.728 299.622C583.664 308.348 592.497 327.77 604.292 310.327C616.087 292.884 633.185 293.119 637.701 306.658C642.216 320.197 652.778 323.823 662.459 313.763C672.14 303.702 698.454 315.73 691.289 348.116C683.187 372.867 639.155 370.546 630.269 363.245C621.384 355.943 607.467 352.467 607.467 352.467C607.467 352.467 585.343 358.908 580.905 333.435C576.468 307.961 555.802 320.903 560.308 336.449C558.998 343.88 556.586 337.223 556.586 337.223V337.223Z" stroke="#231F20" stroke-width="1.4"/>
<path opacity="0.38" d="M691.294 348.087C696.382 325.094 684.581 312.367 673.853 310.516C680.712 317.653 683.442 330.252 673.033 340.931C659.548 354.777 635.604 320.006 618.728 335.298C601.853 350.59 590.658 333.467 580.857 315.323C571.057 297.179 548.125 313.3 555.289 327.651C557.24 331.462 558.49 335.593 558.978 339.847C559.458 339.546 559.927 338.572 560.306 336.425C555.805 320.88 576.475 307.916 580.905 333.435C585.334 358.954 607.468 352.461 607.468 352.461C607.468 352.461 621.379 355.936 630.27 363.239C639.161 370.541 683.192 372.839 691.294 348.087Z" fill="#F9663E"/>
<path d="M672.396 472.952L633.326 468.586L642.929 414.123C642.929 414.123 701.255 408.213 709.654 419.465C718.053 430.716 672.396 472.952 672.396 472.952Z" fill="#231F20"/>
<path d="M536.909 448.806C529.545 450.1 525.114 449.459 522.991 447.292C521.995 453.902 522.178 464.487 534.814 460.688C552.772 455.288 540.652 472.855 552.845 468.849C563.439 465.374 587.301 456.955 591.853 449.127" stroke="#FFA350"/>
<path d="M458.352 416.973C458.352 416.973 473.581 409.73 479.757 417.127C485.934 424.523 493.006 408.028 477.997 402.999" stroke="#FFA350"/>
<path d="M445.484 508.37C450.296 504.663 448.718 497.944 443.284 493.225C436.802 487.591 461.688 479.563 453.21 467.568C444.731 455.573 470.407 453.665 469.418 440.432C468.504 428.124 445.923 433.119 442.696 433.899" stroke="#FFA350"/>
<path d="M506.564 501.807C506.564 501.807 494.491 480.851 483.578 489.088C472.665 497.325 490.521 508.9 480.15 512.935C469.779 516.97 467.871 518.485 469.156 521.596" stroke="#FFA350"/>
<path fill-rule="evenodd" clip-rule="evenodd" d="M609.745 452.55C609.745 452.55 571.664 442.676 536.91 448.806C512.803 453.046 520.15 436.583 536.65 413.616C538.027 396.368 523.218 382.223 523.212 382.222C487.006 395.46 425.573 422.768 430.533 478.432C437.226 553.545 594.128 524.36 594.128 524.36C594.128 524.36 637.389 461.834 609.745 452.55V452.55Z" stroke="#231F20"/>
<path d="M589.549 448.749C589.549 448.749 537.182 454.846 528.085 481.927C517.034 514.796 504.781 568.155 510.509 581.61C516.236 595.065 611.184 476.847 589.549 448.749Z" fill="white"/>
<path d="M589.549 448.749C589.549 448.749 537.182 454.846 528.085 481.927C517.034 514.796 504.781 568.155 510.509 581.61C516.236 595.065 611.184 476.847 589.549 448.749Z" fill="white" stroke="#231F20" stroke-width="1.4"/>
<path opacity="0.68" d="M592.405 455.472C592.405 455.472 562.874 457.022 547.425 482.873C531.975 508.723 515.189 558.848 515.189 558.848C515.189 558.848 599.125 467.87 592.405 455.472Z" fill="#C1BFBF"/>
<path d="M587.84 593.441C699.542 613.137 791.764 619.635 793.824 607.955C795.883 596.275 707 570.84 595.298 551.144C483.596 531.448 391.374 524.949 389.315 536.629C387.255 548.309 476.138 573.745 587.84 593.441Z" fill="#111111" stroke="#111111" stroke-width="1.4"/>
<path d="M729.687 580.446C722.882 531.505 700.279 458.72 616.534 454.95C616.534 454.95 567.959 445.801 524.414 540.012C546.563 543.035 570.445 546.762 595.298 551.144C647.354 560.323 694.443 570.746 729.687 580.446Z" fill="#F467B5" stroke="#231F20" stroke-width="1.4"/>
<path d="M729.687 580.446C722.882 531.505 700.279 458.72 616.534 454.95C616.534 454.95 567.959 445.801 524.414 540.012C546.563 543.035 570.445 546.762 595.298 551.144C647.354 560.323 694.443 570.746 729.687 580.446Z" fill="#F467B5" stroke="#231F20" stroke-width="1.4"/>
<path d="M610.168 447.702L605.144 451.488C605.144 451.488 591.209 448.908 589.552 448.738C590.255 452.366 592.177 503.763 592.177 503.763C592.177 503.763 613.792 454.245 610.168 447.702Z" fill="white" stroke="#231F20" stroke-width="1.4"/>
<path d="M616.136 370.669C616.136 370.669 572.534 432.475 611.055 444.523C605.361 465.326 592.114 504.254 592.114 504.254L645.024 454.14L654.245 370.048C654.245 370.048 628.946 351.904 616.136 370.669Z" fill="#F9A685" stroke="#231F20" stroke-width="1.4"/>
<path d="M675.688 467.267L675.349 467.464L675.938 467.638L675.688 467.267Z" fill="white"/>
<path d="M524.415 540.012C447.029 529.456 390.913 527.567 389.315 536.629C387.769 545.397 437.418 561.901 509.524 577.926C509.821 576.609 510.195 575.31 510.642 574.036C515.136 561.402 519.748 550.115 524.415 540.012V540.012Z" fill="#111111" stroke="#111111"/>
<path d="M746.96 585.425C741.589 583.795 735.815 582.128 729.688 580.446C730.514 586.356 731.105 591.915 731.545 596.968C737.212 593.881 742.403 589.993 746.96 585.425Z" fill="#111111" stroke="#111111"/>
<path d="M595.298 551.144C570.446 546.762 546.563 543.035 524.414 540.012C519.748 550.115 515.136 561.402 510.645 574.019C510.197 575.293 509.824 576.592 509.527 577.91C533.507 583.236 559.966 588.509 587.843 593.424C595.293 594.738 602.642 595.991 609.892 597.183C610.05 595.126 610.252 593.019 610.497 590.866C619.627 595.205 629.077 598.836 638.763 601.725C656.211 604.317 672.794 606.517 688.178 608.295C704.994 607.552 719.737 603.494 731.545 596.968C731.105 591.915 730.497 586.353 729.687 580.446C694.443 570.746 647.354 560.323 595.298 551.144V551.144Z" fill="#F467B5" stroke="#231F20"/>
<path d="M756.384 588.383L751.202 580.608C749.879 582.291 748.462 583.899 746.96 585.425C733.989 598.608 713.404 607.184 688.178 608.295C724.807 612.529 754.647 614.392 773.159 613.568L756.384 588.383Z" fill="white" stroke="#231F20"/>
<path d="M610.497 590.866C610.249 593.036 610.047 595.143 609.891 597.183C619.732 598.802 629.376 600.315 638.769 601.691C629.081 598.813 619.63 595.194 610.497 590.866V590.866Z" fill="white" stroke="#231F20"/>
<path d="M675.348 467.47C663.544 463.926 651.485 461.298 639.277 459.608L657.778 482.096C666.753 472.793 673.782 468.402 675.348 467.47Z" fill="#F467B5"/>
<path d="M759.77 533.84C749.018 496.286 707.302 477.017 675.926 467.636L675.348 467.47C673.77 468.406 666.752 472.798 657.778 482.096C649.832 490.33 640.355 502.412 631.762 519.351C619.549 518.366 607.142 517.854 595.444 517.695C575.09 527.871 567.202 548.432 564.14 562.217L565.257 562.94C579.297 573.838 594.463 583.202 610.496 590.872C673.567 620.681 728.657 609.371 751.201 580.613C761.252 567.792 764.832 551.499 759.77 533.84Z" fill="white"/>
<path opacity="0.68" d="M675.937 467.638C672.125 464.25 704.634 494.732 694.47 520.878C693.303 523.889 691.075 526.884 688.144 529.929C689.069 530.279 695.12 532.859 695.12 532.859C695.12 532.859 722.941 504.243 675.937 467.638Z" fill="#C1BFBF"/>
<path opacity="0.68" d="M608.119 565.405C588.633 554.43 576.093 550.204 568.023 549.406C566.401 553.568 565.103 557.85 564.141 562.212L565.258 562.934C579.298 573.832 594.464 583.196 610.497 590.866C673.568 620.675 728.658 609.365 751.202 580.608C703.818 619.55 665.573 597.757 608.119 565.405Z" fill="#C1BFBF"/>
<path d="M675.937 467.638L675.348 467.47C673.769 468.406 666.752 472.798 657.778 482.096C649.832 490.33 640.355 502.412 631.762 519.351" stroke="#231F20" stroke-width="1.4"/>
<path d="M703.759 537.98C683.109 522.612 635.207 518.224 595.44 517.712C575.087 527.888 567.198 548.449 564.137 562.234L565.253 562.957C675.263 647.458 778.818 600.386 759.777 533.865C741.977 471.696 639.274 459.625 639.274 459.625" stroke="#231F20" stroke-width="1.4"/>
<path d="M692.819 467.975C692.819 467.975 664.321 474.133 665.144 450.621C665.966 427.109 678.188 415.359 651.488 425.397C624.787 435.434 615.773 415.981 624.63 399.894C633.487 383.808 633.019 377.027 614.786 372.656C591.214 367.004 614.637 322.33 650.111 343.746C685.585 365.161 644.214 385.273 704.067 387.522C768.434 389.943 743.536 459.474 692.819 467.975Z" fill="#FC6C54"/>
<path opacity="0.2" d="M704.068 387.522C644.214 385.273 685.563 365.157 650.111 343.746C637.064 335.868 625.651 336.939 617.598 341.709C627.99 340.832 646.521 341.553 651.332 356.826C658.124 378.388 654.431 409.932 685.832 401.453C717.233 392.974 742.592 414.06 732.021 436.286C721.451 458.511 691.773 468.176 691.773 468.176C692.434 468.071 692.817 467.986 692.817 467.986C743.537 459.474 768.434 389.943 704.068 387.522Z" fill="#CC2B1F"/>
<path fill-rule="evenodd" clip-rule="evenodd" d="M692.82 467.975C692.82 467.975 664.321 474.133 665.144 450.621C665.967 427.109 678.189 415.359 651.488 425.397C624.788 435.434 615.773 415.98 624.631 399.894C633.488 383.808 633.019 377.027 614.787 372.656C609.863 371.472 606.983 368.593 605.84 364.975C605.419 363.62 605.223 362.204 605.259 360.785C605.318 358.647 605.748 356.535 606.529 354.544C611.219 342.249 628.417 330.629 650.109 343.728C685.579 365.166 644.212 385.255 704.065 387.504C768.435 389.943 743.537 459.474 692.82 467.975V467.975Z" stroke="#231F20" stroke-width="1.4"/>
<path d="M493.188 471.378L510.52 469.685L517.082 536.855L499.75 538.549L493.188 471.378Z" fill="#7CF6FC"/>
<path fill-rule="evenodd" clip-rule="evenodd" d="M493.188 471.378L510.52 469.685L517.082 536.855L499.75 538.549L493.188 471.378Z" stroke="#231F20" stroke-width="1.4"/>
<path d="M490.397 474.658C490.237 473.014 491.439 471.551 493.083 471.39L510.621 469.677C512.265 469.516 513.728 470.719 513.888 472.363C514.049 474.007 512.846 475.469 511.203 475.63L493.664 477.343C492.021 477.504 490.558 476.302 490.397 474.658Z" fill="#7CF6FC"/>
<path d="M493.56 477.358C492.794 477.437 492.029 477.207 491.435 476.718C490.84 476.229 490.467 475.523 490.398 474.756L490.38 474.59C490.304 473.82 490.538 473.052 491.029 472.455C491.52 471.858 492.228 471.481 492.997 471.407L510.682 469.678C511.452 469.602 512.22 469.835 512.818 470.326C513.416 470.817 513.795 471.526 513.87 472.296L513.885 472.444C514.04 474.047 512.869 475.473 511.267 475.633L501.593 476.578" stroke="#231F20" stroke-width="1.4"/>
<path d="M506.026 582.858C521 585.498 535.279 575.5 537.919 560.526C540.559 545.552 530.561 531.273 515.587 528.632C500.613 525.992 486.334 535.99 483.694 550.964C481.054 565.938 491.052 580.217 506.026 582.858Z" fill="#7CF6FC"/>
<path d="M506.537 528.491C506.537 528.491 525.476 547.534 518.634 552.325C512.244 556.799 496.83 536.047 483.492 552.307C507.046 565.646 533.499 569.3 534.095 558.269C534.691 547.237 508.336 526.069 506.537 528.491Z" fill="#231F20" stroke="#231F20" stroke-width="1.4"/>
<path d="M511.11 556.709C504.236 552.239 490.256 543.525 483.493 552.307C481.771 566.009 490.467 578.866 503.824 582.369C517.182 585.873 531.068 578.938 536.293 566.155C541.518 553.372 536.464 538.697 524.477 531.841C521.621 532.186 518.832 532.95 516.199 534.107C516.199 534.107 524.906 541.593 525.232 549.751C525.557 557.908 518.566 561.552 511.11 556.709Z" fill="#FC6C54" stroke="#231F20" stroke-width="1.4"/>
<path opacity="0.62" d="M524.488 531.843C523.378 531.977 522.277 532.172 521.19 532.429C525.96 535.816 533.719 542.814 533.855 552.41C534.056 566.309 521.937 575.852 509.656 571.742C497.966 567.829 493.584 551.675 483.423 552.966C482.041 566.621 490.927 579.208 504.257 582.476C517.586 585.745 531.287 578.697 536.38 565.953C541.472 553.208 536.4 538.659 524.488 531.843V531.843Z" fill="#E54C38"/>
<path d="M592.121 504.279C592.121 504.279 563.02 539.752 555.44 587.448" stroke="#231F20" stroke-width="1.4"/>
<path fill-rule="evenodd" clip-rule="evenodd" d="M506.026 582.858C521 585.498 535.279 575.5 537.919 560.526C540.559 545.552 530.561 531.273 515.587 528.632C500.613 525.992 486.334 535.99 483.694 550.964C481.054 565.938 491.052 580.217 506.026 582.858Z" stroke="#231F20" stroke-width="1.4"/>
<path d="M487.183 541.611C495.591 536.979 507.295 546.582 508.514 538.907C509.373 533.505 503.044 531.875 497.907 531.431C493.471 533.782 489.762 537.303 487.183 541.611V541.611Z" fill="#FC6C54"/>
<path opacity="0.62" d="M505.555 533.363C506.148 535.599 504.147 540.491 499.214 537.63C496.078 535.809 492.554 536.619 490.033 537.704C488.967 538.918 488.014 540.226 487.183 541.611C495.592 536.979 507.295 546.582 508.514 538.907C508.938 536.237 507.615 534.503 505.555 533.363Z" fill="#E54C38"/>
<path fill-rule="evenodd" clip-rule="evenodd" d="M487.183 541.611C495.591 536.979 507.295 546.582 508.514 538.907C509.373 533.505 503.044 531.875 497.907 531.431C493.471 533.782 489.762 537.303 487.183 541.611V541.611Z" stroke="#231F20" stroke-width="1.4"/>
<path d="M651.993 461.874L645.493 450.45L592.047 504.698C594.858 504.651 665.444 465.081 665.444 465.081L651.993 461.874Z" fill="white" stroke="#231F20" stroke-width="1.4"/>
<path d="M595.445 517.689C564.463 517.266 538.417 519.185 534.037 520.048C524.03 522.021 515.846 503.152 514.361 501.874C512.875 500.596 513.135 509.454 514.375 516.996C511.648 509.507 486.12 508.329 489.94 537.799C502.383 521.48 525.953 537.375 564.144 562.195C567.202 548.426 575.114 527.869 595.445 517.689Z" fill="#F9A685" stroke="#231F20" stroke-width="1.4"/>
<path d="M793.823 607.955C794.654 603.243 780.695 596.297 756.395 588.385L773.159 613.568C785.873 613.001 793.257 611.167 793.823 607.955Z" fill="#111111" stroke="#111111" stroke-width="1.4"/>
<path d="M536.644 413.615C543.944 403.45 553.032 392.017 561.999 380.541C577.638 360.768 570.268 355.602 566.782 357.686C563.296 359.769 569.502 369.22 554.895 354.322C551.301 350.664 548.171 360.034 547.985 372.878C545.407 374.683 535.848 377.594 523.2 382.22C523.208 382.244 538.021 396.367 536.644 413.615Z" fill="#F9A685" stroke="#231F20" stroke-width="1.4"/>
<path d="M589.611 404.681L568.438 382.844C567.948 382.326 567.654 381.655 567.604 380.945L563.701 340.218L563.946 340.191C565.419 340.03 566.487 338.713 566.341 337.238L566.259 336.377C566.197 335.671 565.855 335.02 565.309 334.567C564.764 334.114 564.061 333.898 563.355 333.967L549.997 335.338C548.526 335.502 547.461 336.819 547.608 338.292L547.689 339.153C547.751 339.858 548.092 340.509 548.636 340.962C549.18 341.414 549.883 341.63 550.588 341.562L550.837 341.536L554.707 382.286C554.773 382.988 554.602 383.692 554.22 384.285L537.553 410.02C535.155 413.685 537.88 418.796 542.009 418.397L564.408 416.098L586.806 413.799C590.938 413.353 592.645 407.809 589.611 404.681Z" fill="white"/>
<path d="M559.853 334.325C559.853 334.325 564.26 346.291 559.776 354.634C555.291 362.977 568.42 370.624 563.133 378.054C560.647 379.998 558.416 372.282 555.025 370.282C551.634 368.283 551.159 359.089 554.781 349.905C558.404 340.721 555.316 334.815 555.316 334.815" fill="#FFA350"/>
<path d="M559.853 334.325C559.853 334.325 564.26 346.291 559.776 354.634C555.291 362.977 568.42 370.624 563.133 378.054C560.647 379.998 558.416 372.282 555.025 370.282C551.634 368.283 551.159 359.089 554.781 349.905C558.404 340.721 555.316 334.815 555.316 334.815" stroke="#231F20" stroke-width="1.4"/>
<path fill-rule="evenodd" clip-rule="evenodd" d="M589.611 404.681L568.438 382.844C567.948 382.326 567.654 381.655 567.604 380.945L563.701 340.218L563.946 340.191C565.419 340.03 566.487 338.713 566.341 337.238L566.259 336.377C566.197 335.671 565.855 335.02 565.309 334.567C564.764 334.114 564.061 333.898 563.355 333.967L549.997 335.338C548.526 335.502 547.461 336.819 547.608 338.292L547.689 339.153C547.751 339.858 548.092 340.509 548.636 340.962C549.18 341.414 549.883 341.63 550.588 341.562L550.837 341.536L554.707 382.286C554.773 382.988 554.602 383.692 554.22 384.285L537.553 410.02C535.155 413.685 537.88 418.796 542.009 418.397L564.408 416.098L586.806 413.799C590.938 413.353 592.645 407.809 589.611 404.681V404.681Z" stroke="#231F20" stroke-width="1.4"/>
<path opacity="0.38" d="M563.121 378.052C568.409 370.622 555.268 362.973 559.764 354.632C564.26 346.291 559.841 334.323 559.841 334.323L558.015 334.515L557.988 334.667C557.988 334.667 561.404 344.9 556.588 353.237C552.041 361.107 565.117 371.571 562.291 378.355C562.595 378.353 562.888 378.246 563.121 378.052Z" fill="#F9663E"/>
<path d="M675.937 467.638C678.125 472.252 704.39 496.411 694.469 520.878C693.258 523.87 691.074 526.884 688.143 529.929" stroke="#231F20" stroke-width="1.4"/>
<path d="M548.135 368.787C548.135 368.787 549.038 342.795 561.764 352.462C571.878 360.149 569.164 374.615 551.494 377.754" fill="#F9A685"/>
<path d="M548.135 368.787C548.135 368.787 549.038 342.795 561.764 352.462C571.878 360.149 569.164 374.615 551.494 377.754" stroke="#231F20" stroke-width="1.4" stroke-linecap="round"/>
<path d="M611.053 444.535C625.073 449.81 633.216 441.382 633.216 441.382C632.739 444.387 624.708 454.926 607.852 455.633C609.373 450.452 611.053 444.535 611.053 444.535Z" fill="#231F20" stroke="#231F20" stroke-width="1.4" stroke-linecap="round"/>
<path d="M626.475 396.418L605.967 392.802" stroke="#231F20" stroke-width="1.4" stroke-linecap="round"/>
<path d="M606.541 398.918C605.61 401.35 604.192 403.566 602.374 405.43C598.834 408.947 604.767 409.905 608.259 410.673" stroke="#231F20" stroke-width="1.4" stroke-linecap="round"/>
<path d="M614.017 405.965C617.323 406.548 620.862 402.152 621.921 396.146C622.98 390.14 621.158 384.799 617.852 384.216C614.546 383.633 611.007 388.029 609.948 394.035C608.889 400.041 610.711 405.382 614.017 405.965Z" fill="white" stroke="#231F20" stroke-width="1.4"/>
<path d="M598.057 402.619C601.363 403.202 604.902 398.806 605.961 392.801C607.02 386.795 605.198 381.453 601.892 380.87C598.586 380.287 595.047 384.683 593.988 390.689C592.929 396.695 594.751 402.036 598.057 402.619Z" fill="white" stroke="#231F20" stroke-width="1.4"/>
<path d="M603.525 428.064C605.222 427.928 606.392 425.261 606.139 422.108C605.886 418.954 604.305 416.508 602.608 416.644C600.911 416.781 599.74 419.447 599.994 422.601C600.247 425.754 601.828 428.2 603.525 428.064Z" fill="#231F20"/>
<path d="M567.698 381.574C568.452 386.438 571.248 401.747 556.857 401.755C557.857 406.352 570.806 415.381 576.886 408.919C579.418 406.218 580.746 400.84 580.657 395.446L568.438 382.838C568.095 382.482 567.841 382.049 567.698 381.574V381.574Z" fill="#231F20" stroke="#231F20" stroke-width="1.4"/>
<path d="M563.701 340.218L555.168 341.02" stroke="#231F20" stroke-width="1.4"/>
<path d="M589.611 404.681L573.839 388.41C576.949 397.963 572.849 409.031 561.49 403.501C552.508 399.131 545.413 401.413 542.016 403.127L537.553 410.02C535.155 413.685 537.88 418.796 542.009 418.397L564.408 416.098L586.806 413.799C590.938 413.353 592.645 407.809 589.611 404.681Z" fill="#FFA350"/>
<path fill-rule="evenodd" clip-rule="evenodd" d="M589.61 404.681L573.838 388.41C576.948 397.963 572.848 409.031 561.489 403.501C552.507 399.131 545.412 401.413 542.015 403.127L537.552 410.02C535.154 413.685 537.879 418.796 542.008 418.397L564.407 416.098L586.805 413.799C590.937 413.353 592.644 407.809 589.61 404.681V404.681Z" stroke="#231F20" stroke-width="1.4"/>
<path d="M563.459 386.071C561.92 379.96 558.348 380.545 554.559 383.556C554.48 383.813 554.368 384.058 554.225 384.286L546.707 395.889C550.84 395.006 556.024 397.205 559.634 395.675C564.679 393.528 563.459 386.071 563.459 386.071Z" fill="#FFA350" stroke="#231F20" stroke-width="1.4"/>
<path d="M506.418 511.213C508.267 511.539 510.029 510.305 510.355 508.456C510.681 506.607 509.447 504.844 507.598 504.518C505.75 504.192 503.987 505.427 503.661 507.275C503.335 509.124 504.569 510.887 506.418 511.213Z" fill="#E54C38" stroke="#231F20" stroke-width="1.4"/>
<path d="M500.392 483.386C498.341 483.024 496.228 483.429 494.457 484.524L495.969 499.793C496.449 499.974 496.945 500.11 497.451 500.2C502.092 501.019 506.519 497.919 507.338 493.277C508.156 488.635 505.057 484.209 500.415 483.39L500.392 483.386Z" fill="#FC6C54" stroke="#231F20" stroke-width="1.4"/>
<path opacity="0.62" d="M500.392 483.386C499.98 483.316 499.563 483.278 499.145 483.271C499.517 483.4 499.881 483.551 500.233 483.726C503.784 485.54 505.605 489.571 504.617 493.434C503.63 497.297 500.097 499.961 496.112 499.847C499.142 500.887 502.5 500.14 504.805 497.914C507.11 495.688 507.972 492.358 507.038 489.293C506.103 486.228 503.53 483.945 500.375 483.383L500.392 483.386Z" fill="#E54C38"/>
<path fill-rule="evenodd" clip-rule="evenodd" d="M500.393 483.386C498.342 483.024 496.229 483.429 494.458 484.524L495.97 499.793C496.45 499.974 496.946 500.11 497.451 500.2C502.093 501.019 506.52 497.919 507.339 493.277C508.157 488.635 505.058 484.209 500.416 483.39L500.393 483.386Z" stroke="#231F20" stroke-width="1.4"/>
<path d="M509.692 458.863C510.298 455.45 508.89 451.993 506.072 449.975C503.255 447.956 499.529 447.734 496.492 449.405C496.906 449.415 497.318 449.455 497.726 449.523C501.493 450.186 504.43 453.155 505.053 456.928C505.675 460.701 503.847 464.456 500.493 466.293C504.984 466.461 508.911 463.289 509.692 458.863Z" fill="#FC6C54"/>
<path d="M505.036 459.964C505.897 455.063 502.626 450.391 497.726 449.523C497.318 449.455 496.905 449.415 496.491 449.405C493.135 451.24 491.305 454.995 491.928 458.769C492.551 462.542 495.491 465.51 499.259 466.169C499.666 466.239 500.079 466.281 500.492 466.293C502.891 464.985 504.564 462.655 505.036 459.964Z" fill="#FC6C54"/>
<path opacity="0.62" d="M509.692 458.863C510.298 455.45 508.89 451.993 506.072 449.975C503.255 447.956 499.529 447.734 496.492 449.405C496.906 449.415 497.318 449.455 497.726 449.523C501.493 450.186 504.43 453.155 505.053 456.928C505.675 460.701 503.847 464.456 500.493 466.293C504.984 466.461 508.911 463.289 509.692 458.863Z" fill="#E54C38"/>
<path d="M505.036 459.964C505.897 455.063 502.626 450.391 497.726 449.523C497.318 449.455 496.905 449.415 496.491 449.405C493.135 451.24 491.305 454.995 491.928 458.769C492.551 462.542 495.491 465.51 499.259 466.169C499.666 466.239 500.079 466.281 500.492 466.293C502.891 464.985 504.564 462.655 505.036 459.964Z" fill="#FC6C54"/>
<path fill-rule="evenodd" clip-rule="evenodd" d="M499.258 466.169C504.157 467.033 508.828 463.762 509.692 458.863C510.555 453.965 507.285 449.294 502.386 448.43C497.488 447.566 492.816 450.837 491.953 455.735C491.089 460.634 494.36 465.305 499.258 466.169Z" stroke="#231F20"/>
<path d="M491.983 435.558C494.748 436.046 497.385 434.199 497.873 431.434C498.361 428.669 496.514 426.032 493.749 425.544C490.984 425.057 488.347 426.903 487.859 429.668C487.372 432.434 489.218 435.07 491.983 435.558Z" fill="#FC6C54" stroke="#231F20"/>
<path fill-rule="evenodd" clip-rule="evenodd" d="M529.689 359.66C532.455 360.147 535.091 358.301 535.579 355.536C536.067 352.771 534.22 350.134 531.455 349.646C528.69 349.159 526.053 351.005 525.565 353.77C525.078 356.535 526.924 359.172 529.689 359.66Z" stroke="#231F20"/>
<path d="M508.912 419.371C510.392 419.632 511.802 418.644 512.063 417.164C512.324 415.684 511.336 414.274 509.857 414.013C508.377 413.752 506.966 414.74 506.705 416.219C506.444 417.699 507.432 419.11 508.912 419.371Z" fill="#E54C38" stroke="#231F20"/>
<path d="M478.738 465.698C480.218 465.959 481.629 464.971 481.889 463.492C482.15 462.012 481.162 460.601 479.683 460.34C478.203 460.079 476.792 461.067 476.532 462.547C476.271 464.026 477.259 465.437 478.738 465.698Z" fill="#E54C38" stroke="#231F20"/>
<path d="M651.993 461.874L633.237 474.779" stroke="#231F20" stroke-linecap="round"/>
<path d="M605.142 451.499L603.918 458.437" stroke="#231F20" stroke-linecap="round"/>
<path d="M596.104 525.176C598.546 522.525 601.202 520.079 604.045 517.863" stroke="#231F20"/>
<path d="M575.102 570.095C575.102 570.095 577.527 550.311 590.278 532.383" stroke="#231F20"/>
<path d="M510.829 386.97C510.829 386.97 531.71 402.916 531.525 420.987" stroke="#231F20"/>
<path d="M762.032 548.033C755.369 548.3 747.444 550.985 744.182 561.301C738.085 580.578 719.641 562.668 705.546 579.016C699.289 586.282 699.681 597.207 703.72 606.562" stroke="#FFA350"/>
<path d="M631.762 519.351C631.762 519.351 623.095 531.704 631.064 533.244C639.032 534.783 628.294 546.304 641.439 548.622C654.585 550.94 656.241 530.091 671.906 535.774C687.571 541.456 682.565 526.791 677.747 526.625" stroke="#FFA350"/>
<path opacity="0.68" d="M592.953 550.695C595.793 551.196 598.502 549.3 599.003 546.459C599.503 543.619 597.607 540.911 594.767 540.41C591.927 539.909 589.218 541.805 588.717 544.646C588.216 547.486 590.113 550.194 592.953 550.695Z" fill="#C1BFBF"/>
<path opacity="0.68" d="M514.839 409.77C517.679 410.27 520.388 408.374 520.888 405.534C521.389 402.693 519.493 399.985 516.652 399.484C513.812 398.983 511.104 400.88 510.603 403.72C510.102 406.56 511.999 409.269 514.839 409.77Z" fill="#C1BFBF"/>
<path opacity="0.46" d="M678.48 453.218C681.32 453.718 684.028 451.822 684.529 448.982C685.03 446.141 683.133 443.433 680.293 442.932C677.453 442.431 674.744 444.328 674.244 447.168C673.743 450.008 675.639 452.717 678.48 453.218Z" fill="white"/>
<path opacity="0.46" d="M675.113 438.135C676.561 438.391 677.942 437.423 678.197 435.975C678.453 434.527 677.486 433.146 676.037 432.89C674.589 432.635 673.208 433.602 672.953 435.05C672.697 436.499 673.664 437.88 675.113 438.135Z" fill="white"/>
<path d="M630.22 411.946C630.156 414.989 631.532 417.755 635.308 420.05" stroke="white" stroke-linecap="round"/>
<path d="M630.703 408.907C630.554 409.424 630.438 409.95 630.356 410.481" stroke="white" stroke-linecap="round"/>
<path d="M617.258 348.739C613.406 352.598 608.432 359.312 614.309 364.436C623.015 371.993 645.552 369.011 644.478 381.593C643.983 387.346 638.856 393.97 634.888 400.342" stroke="white" stroke-linecap="round"/>
<path d="M620.667 345.702C620.667 345.702 619.787 346.353 618.565 347.451" stroke="white" stroke-linecap="round"/>
<path fill-rule="evenodd" clip-rule="evenodd" d="M674.827 549.078C674.827 549.078 664.192 545.141 661.373 551.856C658.554 558.572 665.095 559.462 667.705 557.347C670.314 555.232 670.055 551.67 675.009 553.315C679.963 554.959 678.311 549.26 674.827 549.078V549.078Z" stroke="#231F20"/>
<path d="M725.8 490.317C725.8 490.317 716.916 498.404 725.543 503.663C734.17 508.921 743.394 510.758 738.239 521.085C733.083 531.412 749.847 532.949 752.653 517.629" stroke="#FFA350"/>
<path d="M666.64 486.018C668.073 486.27 669.439 485.314 669.692 483.881C669.944 482.448 668.988 481.082 667.555 480.83C666.122 480.577 664.756 481.534 664.504 482.966C664.251 484.399 665.208 485.765 666.64 486.018Z" fill="#231F20" stroke="#231F20"/>
<path d="M651.779 505.256C653.211 505.508 654.578 504.552 654.83 503.119C655.083 501.687 654.126 500.32 652.694 500.068C651.261 499.815 649.895 500.772 649.642 502.204C649.39 503.637 650.346 505.003 651.779 505.256Z" fill="#231F20" stroke="#231F20"/>
<path d="M589.165 578.672C589.165 578.672 603.647 553.071 619.486 561.015C635.325 568.959 615.43 585.178 633.912 582.83C652.395 580.483 649.92 599.225 647.404 604.055" stroke="#FFA350"/>
<path d="M692.483 590.863C692.389 592.24 692.351 593.69 692.371 595.211" stroke="#231F20"/>
<path d="M735.453 561.689C735.453 561.689 735.666 567.567 725.998 565.862C717.791 564.415 698.951 564.684 693.707 583.393" stroke="#231F20"/>
<path d="M706.404 539.964L708.969 542.209" stroke="#231F20"/>
<path d="M717.339 395.054C717.339 395.054 742.016 397.852 737.881 421.3" stroke="white" stroke-linecap="round"/>
<path d="M691.863 500.521C693.328 506.69 693.405 514.628 688.455 522.597" stroke="#FFA350"/>
<path d="M686.82 488.881C688.134 490.825 689.236 492.905 690.106 495.084" stroke="#FFA350"/>
<path d="M615.583 395.63C617.816 396.024 619.747 395.661 619.895 394.82C620.044 393.978 618.354 392.977 616.12 392.583C613.887 392.189 611.956 392.552 611.808 393.393C611.659 394.235 613.349 395.236 615.583 395.63Z" fill="white" stroke="#161515"/>
<path d="M614.652 392.429C613.096 392.382 611.917 392.741 611.802 393.392C611.687 394.044 612.673 394.778 614.152 395.267C615.035 395.195 615.738 394.752 615.852 394.106C615.966 393.461 615.457 392.799 614.652 392.429Z" fill="#161515"/>
<path d="M599.644 392.82C601.878 393.214 603.809 392.851 603.957 392.009C604.105 391.168 602.415 390.166 600.182 389.773C597.948 389.379 596.017 389.742 595.869 390.583C595.721 391.425 597.411 392.426 599.644 392.82Z" fill="white" stroke="#161515" stroke-width="1.4"/>
<path d="M598.714 389.619C597.163 389.573 595.984 389.932 595.869 390.583C595.755 391.234 596.741 391.969 598.214 392.456C599.097 392.384 599.8 391.942 599.913 391.296C600.027 390.65 599.519 389.989 598.714 389.619Z" fill="#161515"/>
<path d="M583.253 453.859C583.253 453.859 545.68 456.338 534.656 481.929" stroke="#FFA350"/>
<path d="M749.571 503.747C749.571 503.747 772.413 522.883 769.987 552.075" stroke="#231F20"/>
<path d="M395.072 515.798C410.256 518.475 422.887 518.817 423.285 516.562C423.682 514.306 411.696 510.308 396.513 507.63C381.329 504.953 368.698 504.611 368.3 506.866C367.903 509.122 379.889 513.12 395.072 515.798Z" fill="#111111" stroke="#111111"/>
<path d="M814.092 587.627C825.897 589.708 835.743 589.831 836.083 587.901C836.424 585.971 827.13 582.719 815.324 580.637C803.519 578.556 793.673 578.433 793.333 580.363C792.993 582.293 802.287 585.545 814.092 587.627Z" fill="#111111" stroke="#111111"/>
<path d="M692.652 617.966C687.15 617.284 681.443 616.531 675.53 615.707" stroke="#231F20"/>
<path d="M705.233 619.443L700.081 618.856" stroke="#231F20"/>
<path d="M783.231 589.274C783.231 589.274 810.491 595.436 813.682 609.167C816.493 621.279 785.161 628.041 708.536 619.827" stroke="#231F20"/>
<path d="M463.617 458.459C459.66 461.82 457.044 465.003 459.604 468.696C464.004 477.326 456.273 483.152 456.273 483.152" stroke="#231F20"/>
<path d="M460.998 426.351C460.998 426.351 475.433 425.76 477.521 439.525C478.483 445.856 473.408 450.561 468.268 454.707" stroke="#231F20"/>
<path d="M517.646 453.036C517.484 457.901 518.685 464.864 526.541 466.185" stroke="#231F20"/>
<path d="M518.269 448.217C518.088 448.992 517.95 449.777 517.854 450.567" stroke="#231F20"/>
<path d="M384.369 542.356C384.97 542.462 414.843 569.74 479.646 579.094" stroke="#231F20"/>
<path d="M672.18 316.826C676.031 316.845 680.652 318.057 684.136 322.642C687.313 326.817 688.516 333.243 687.942 339.408" stroke="white" stroke-linecap="round"/>
<path d="M664.744 318.16C665.886 317.724 667.066 317.396 668.269 317.181" stroke="white" stroke-linecap="round"/>
<path opacity="0.38" d="M589.611 404.681L580.766 395.529L580.459 395.645C580.459 395.645 589.495 411.335 574.204 411.91C561.371 412.391 542.235 406.751 537.132 415.254C537.888 417.26 539.88 418.524 542.017 418.352L564.416 416.053L586.814 413.753C590.938 413.353 592.645 407.809 589.611 404.681Z" fill="#F9663E"/>
<path fill-rule="evenodd" clip-rule="evenodd" d="M738.379 459.546L724.25 470.387L740.453 473.518L738.379 459.546Z" stroke="#231F20" stroke-width="1.4"/>
<path d="M441.68 424.586C441.68 424.586 415.516 449.073 425.661 492.255" stroke="#231F20" stroke-width="1.4"/>
<path d="M576.421 291.496C579.108 292.789 581.325 294.889 582.761 297.502" stroke="#231F20" stroke-width="1.4"/>
<path d="M569.926 289.68C571.151 289.79 572.362 290.019 573.543 290.364" stroke="#231F20" stroke-width="1.4"/>
<path d="M545.349 320.496C545.349 320.496 543.419 294.747 560.503 290.529" stroke="#231F20" stroke-width="1.4"/>
</svg>
